<svg width="793" height="249" viewBox="0 0 793 249" fill="none" xmlns="http://www.w3.org/2000/svg">
<path d="M323.655 225.43V223.39H341.826V225.43H323.655ZM331.649 234.145V214.655H333.833V234.145H331.649ZM354.95 238.286V208.289H362.428C366.15 208.289 369.131 209.573 371.37 212.142C373.622 214.696 374.748 218.164 374.748 222.546V224.029C374.748 228.493 373.615 231.988 371.349 234.515C369.083 237.029 366.109 238.286 362.428 238.286H354.95ZM357.298 236.246H362.428C365.45 236.246 367.86 235.182 369.66 233.053C371.459 230.91 372.358 227.902 372.358 224.029V222.566C372.358 218.748 371.466 215.754 369.68 213.584C367.895 211.414 365.477 210.329 362.428 210.329H357.298V236.246ZM376.396 238.286L386.739 208.124H389.376L399.718 238.286H397.266L388.881 213.316C388.703 212.794 388.552 212.341 388.428 211.956C388.304 211.558 388.181 211.119 388.057 210.638H387.913C387.789 211.119 387.666 211.565 387.542 211.977C387.418 212.375 387.267 212.822 387.089 213.316L378.745 238.286H376.396ZM380.393 229.798L381.094 227.82H394.959L395.659 229.798H380.393ZM397.864 210.329V208.289H418.816V210.329H409.524V238.286H407.176V210.329H397.864ZM420.917 223.988V222.525C420.917 217.526 421.961 213.824 424.049 211.421C426.15 209.003 428.883 207.795 432.248 207.795C435.6 207.795 438.319 209.003 440.407 211.421C442.508 213.824 443.559 217.526 443.559 222.525V223.988C443.559 229.042 442.508 232.771 440.407 235.175C438.319 237.578 435.6 238.78 432.248 238.78C428.883 238.78 426.15 237.578 424.049 235.175C421.961 232.771 420.917 229.042 420.917 223.988ZM423.307 224.07C423.307 228.41 424.117 231.604 425.738 233.65C427.373 235.697 429.536 236.72 432.228 236.72C434.947 236.72 437.117 235.704 438.738 233.671C440.359 231.624 441.169 228.417 441.169 224.05V222.463C441.169 218.151 440.359 214.971 438.738 212.925C437.117 210.878 434.954 209.855 432.248 209.855C429.543 209.855 427.373 210.878 425.738 212.925C424.117 214.971 423.307 218.151 423.307 222.463V224.07ZM447.288 230.375V229.427H449.636V230.333C449.636 232.435 450.275 234.028 451.552 235.113C452.843 236.184 454.622 236.72 456.888 236.72C459.168 236.72 460.919 236.177 462.142 235.092C463.378 234.007 463.996 232.586 463.996 230.828C463.996 229.18 463.467 227.875 462.41 226.913C461.366 225.938 459.34 224.949 456.332 223.947C453.31 222.944 451.14 221.845 449.822 220.65C448.503 219.455 447.844 217.697 447.844 215.376C447.844 213.151 448.62 211.331 450.172 209.917C451.738 208.502 453.928 207.795 456.744 207.795C459.573 207.795 461.785 208.557 463.378 210.082C464.971 211.606 465.768 213.556 465.768 215.933V216.674H463.419V215.933C463.419 214.161 462.863 212.705 461.75 211.565C460.652 210.425 458.983 209.855 456.744 209.855C454.492 209.855 452.83 210.343 451.758 211.318C450.701 212.293 450.172 213.632 450.172 215.335C450.172 216.901 450.694 218.144 451.738 219.064C452.795 219.984 454.828 220.939 457.836 221.928C460.858 222.917 463.028 224.07 464.346 225.389C465.665 226.707 466.324 228.513 466.324 230.807C466.324 233.169 465.472 235.092 463.769 236.576C462.08 238.045 459.786 238.78 456.888 238.78C453.976 238.78 451.648 238.045 449.904 236.576C448.16 235.092 447.288 233.025 447.288 230.375Z" fill="#FDA1B1"/>
<path d="M209.573 121.93C205.417 121.93 202.177 121.074 199.855 119.363C197.655 117.652 196.555 115.94 196.555 114.229C196.555 112.395 197.288 110.99 198.755 110.012C200.222 109.034 201.933 108.545 203.889 108.545C206.089 108.545 208.411 109.217 210.856 110.562C213.301 111.907 215.379 113.985 217.09 116.796C218.801 119.607 219.657 123.336 219.657 127.98C219.657 135.07 218.924 142.099 217.457 149.066C216.112 155.911 214.707 162.451 213.24 168.685C211.773 174.919 211.039 180.664 211.039 185.92C211.039 193.376 212.323 199.549 214.89 204.439C217.457 209.328 221.918 211.773 228.275 211.773C231.086 211.773 233.47 211.345 235.425 210.489C237.381 209.756 239.154 208.717 240.743 207.372L241.293 207.922C239.581 209.389 237.626 210.551 235.425 211.406C233.225 212.384 230.719 212.873 227.908 212.873C220.452 212.873 214.951 210.123 211.406 204.622C207.984 199.122 206.272 192.032 206.272 183.353C206.272 178.219 206.822 173.085 207.922 167.951C209.023 162.695 210.306 157.5 211.773 152.366C213.24 147.11 214.523 142.038 215.623 137.148C216.723 132.136 217.273 127.369 217.273 122.847C217.273 119.302 215.99 116.307 213.423 113.862C210.856 111.295 207.8 110.012 204.255 110.012C202.3 110.012 200.772 110.44 199.672 111.295C198.571 112.151 198.021 113.251 198.021 114.596C198.021 116.307 199.122 117.774 201.322 118.996C203.644 120.219 206.395 120.83 209.573 120.83C220.574 120.83 230.414 118.507 239.093 113.862C247.771 109.095 254.555 102.678 259.445 94.6102C264.456 86.4204 266.962 77.1306 266.962 66.7405C266.962 57.5729 264.701 49.0164 260.178 41.0711C255.655 33.1258 249.36 26.1584 241.293 20.1688C233.225 14.1793 223.813 9.53436 213.056 6.234C202.3 2.81141 190.748 1.10012 178.403 1.10012C167.279 1.10012 156.95 2.56694 147.416 5.50059C137.882 8.43424 129.508 12.5291 122.297 17.7853C115.207 23.0414 109.645 29.2143 105.611 36.3039C101.578 43.2713 99.5608 50.7888 99.5608 58.8564C99.5608 67.5351 101.944 75.1137 106.712 81.5921C111.601 88.0706 118.385 93.1434 127.064 96.8105C135.742 100.355 145.888 102.128 157.5 102.128C166.668 102.128 174.98 100.478 182.436 97.1772C189.893 93.8768 195.821 89.4152 200.222 83.7924C204.622 78.0473 206.822 71.7522 206.822 64.907C206.822 56.9617 203.705 50.6055 197.471 45.8383L198.388 45.1049C204.867 50.1165 208.106 56.6561 208.106 64.7237C208.106 71.8133 205.844 78.2918 201.322 84.1591C196.799 90.0264 190.687 94.6713 182.986 98.0939C175.408 101.517 166.851 103.228 157.317 103.228C145.582 103.228 135.254 101.394 126.33 97.7272C117.529 94.0602 110.684 88.9263 105.795 82.3256C100.905 75.6026 98.4606 67.8407 98.4606 59.0397C98.4606 50.7277 100.478 43.0269 104.511 35.9372C108.545 28.7253 114.168 22.4302 121.38 17.0518C128.714 11.6735 137.209 7.51747 146.866 4.58382C156.645 1.52794 167.157 0 178.403 0C191.115 0 202.85 1.7113 213.606 5.13389C224.485 8.43425 234.02 13.1403 242.21 19.2521C250.399 25.2416 256.756 32.3313 261.278 40.521C265.801 48.5886 268.062 57.3284 268.062 66.7405C268.062 77.2528 265.495 86.6649 260.361 94.9769C255.35 103.289 248.443 109.89 239.643 114.779C230.842 119.546 220.818 121.93 209.573 121.93ZM246.243 63.4402C249.788 59.4064 253.516 55.7394 257.428 52.439C261.339 49.1386 265.434 46.2661 269.712 43.8214H279.063C275.885 44.5548 272.402 45.8994 268.612 47.8552C264.945 49.8109 261.278 52.2556 257.611 55.1893C253.944 58.0007 250.522 61.1177 247.343 64.5403C241.354 71.2633 235.792 78.7807 230.658 87.0927C225.647 95.2825 220.696 103.717 215.807 112.395C211.039 121.074 205.967 129.508 200.588 137.698C195.21 145.766 189.159 153.1 182.436 159.701C176.447 165.568 169.296 170.641 160.984 174.919C152.672 179.197 143.749 182.497 134.214 184.82C124.68 187.265 115.024 188.487 105.245 188.487C91.4321 188.487 79.453 186.409 69.3075 182.253C59.2842 178.219 51.5222 172.474 46.0216 165.018C40.6433 157.439 37.9541 148.455 37.9541 138.065C37.9541 130.486 39.8488 123.458 43.6381 116.979C47.4273 110.379 52.6835 104.572 59.4064 99.5608C66.2516 94.5491 74.0747 90.6376 82.8756 87.8261C91.7988 85.0147 101.272 83.609 111.295 83.609C121.196 83.609 129.814 84.9536 137.148 87.6428C144.482 90.2097 150.105 93.8768 154.017 98.644C158.05 103.411 160.067 109.034 160.067 115.512C160.067 121.135 158.539 126.453 155.483 131.464C152.55 136.476 148.455 140.876 143.199 144.666C138.065 148.455 132.014 151.45 125.047 153.65C118.202 155.728 110.868 156.767 103.044 156.767C93.2656 156.767 85.5037 155.056 79.7586 151.633C74.0135 148.088 71.141 143.321 71.141 137.331C71.141 132.198 73.5246 127.553 78.2918 123.397C83.1812 119.241 89.6597 115.94 97.7272 113.496C105.795 110.929 114.657 109.645 124.313 109.645C134.581 109.645 144.054 110.868 152.733 113.312C161.412 115.757 168.929 119.18 175.286 123.58C181.642 127.98 186.592 133.176 190.137 139.165C193.682 145.155 195.454 151.694 195.454 158.784C195.454 167.707 193.193 176.019 188.67 183.72C184.148 191.421 177.791 198.144 169.602 203.889C161.534 209.634 152.061 214.095 141.182 217.273C130.425 220.574 118.752 222.224 106.161 222.224C90.6376 222.224 76.336 220.146 63.2568 215.99C50.2999 211.834 39.1153 205.967 29.7032 198.388C20.2911 190.809 13.0181 181.825 7.88419 171.435C2.62806 161.045 0 149.616 0 137.148C0 124.68 2.62806 113.251 7.88419 102.861C13.0181 92.4711 20.2911 83.4868 29.7032 75.9082C39.2376 68.2074 50.4832 62.2789 63.4402 58.1229C76.3971 53.9669 90.6376 51.8889 106.161 51.8889C116.918 51.8889 126.88 53.1113 136.048 55.556C145.338 58.0007 153.283 61.4233 159.884 65.8238C166.607 70.102 171.435 75.1137 174.369 80.8587L173.269 81.2254C170.457 75.4804 165.751 70.5298 159.151 66.3738C152.672 62.0956 144.849 58.7952 135.681 56.4728C126.636 54.1503 116.796 52.9891 106.161 52.9891C90.7598 52.9891 76.6416 55.0671 63.8069 59.2231C50.9722 63.2568 39.8488 69.063 30.4366 76.6416C21.1467 84.098 13.9348 92.96 8.80095 103.228C3.66706 113.496 1.10012 124.802 1.10012 137.148C1.10012 149.494 3.66706 160.801 8.80095 171.068C13.9348 181.336 21.1467 190.198 30.4366 197.655C39.8488 205.111 50.9722 210.856 63.8069 214.89C76.6416 219.046 90.7598 221.124 106.161 221.124C118.629 221.124 130.181 219.535 140.815 216.357C151.572 213.179 160.923 208.778 168.868 203.155C176.936 197.532 183.17 190.932 187.57 183.353C192.093 175.775 194.354 167.585 194.354 158.784C194.354 149.494 191.298 141.304 185.187 134.214C179.197 127.003 170.885 121.319 160.251 117.163C149.738 113.007 137.698 110.929 124.13 110.929C114.718 110.929 106.039 112.151 98.0939 114.596C90.2709 116.918 83.9757 120.096 79.2086 124.13C74.5636 128.042 72.2411 132.381 72.2411 137.148C72.2411 142.771 74.9914 147.294 80.492 150.716C86.1149 154.017 93.6323 155.667 103.044 155.667C110.623 155.667 117.774 154.628 124.497 152.55C131.342 150.35 137.332 147.416 142.465 143.749C147.599 140.082 151.633 135.865 154.567 131.097C157.5 126.208 158.967 121.013 158.967 115.512C158.967 109.278 156.95 103.9 152.917 99.3774C149.005 94.7325 143.504 91.1265 136.415 88.5596C129.325 85.9926 120.952 84.7092 111.295 84.7092C101.394 84.7092 92.1044 86.1149 83.4257 88.9263C74.747 91.7377 67.0461 95.5881 60.3232 100.478C53.7225 105.367 48.5275 111.051 44.7382 117.529C40.9489 123.886 39.0542 130.731 39.0542 138.065C39.0542 151.266 44.6159 161.595 55.7394 169.052C66.985 176.386 82.57 180.053 102.494 180.053C114.718 180.053 125.658 178.219 135.315 174.552C144.971 170.885 153.956 165.69 162.268 158.967C170.702 152.122 179.075 143.932 187.387 134.398C195.821 124.741 204.744 113.985 214.156 102.128C223.691 90.1486 234.386 77.2528 246.243 63.4402Z" fill="#A5B82E"/>
<path d="M237.481 176.569C236.014 176.569 234.914 175.897 234.181 174.552C233.325 173.208 232.897 171.374 232.897 169.052C232.897 165.873 233.875 162.512 235.831 158.967C237.664 155.422 240.17 152 243.348 148.699C246.526 145.277 250.071 142.221 253.983 139.532C257.894 136.72 261.928 134.52 266.084 132.931C270.362 131.342 274.396 130.547 278.185 130.547C281.363 130.547 282.953 131.77 282.953 134.214C282.953 136.537 281.486 139.471 278.552 143.015C275.618 146.438 271.951 150.472 267.551 155.117C264.006 158.784 260.278 162.268 256.366 165.568C252.577 168.746 249.032 171.374 245.732 173.452C242.432 175.53 239.681 176.569 237.481 176.569ZM237.664 175.652C239.498 175.652 241.881 174.736 244.815 172.902C247.871 171.068 251.294 168.563 255.083 165.385C258.872 162.206 262.784 158.539 266.817 154.383C271.218 149.738 274.763 145.766 277.452 142.465C280.263 139.165 281.669 136.476 281.669 134.398C281.669 132.809 280.63 132.014 278.552 132.014C276.719 132.014 274.335 132.748 271.401 134.214C268.59 135.681 265.534 137.698 262.234 140.265C258.933 142.71 255.694 145.46 252.516 148.516C249.338 151.572 246.404 154.628 243.715 157.684C241.148 160.74 239.07 163.612 237.481 166.301C235.892 168.99 235.097 171.252 235.097 173.085C235.097 174.797 235.953 175.652 237.664 175.652ZM283.503 152.917C280.447 156.339 277.513 159.028 274.702 160.984C271.89 162.94 269.446 163.918 267.368 163.918C264.067 163.918 262.417 162.206 262.417 158.784C262.417 156.828 262.906 154.933 263.884 153.1C264.862 151.144 266.573 148.761 269.018 145.949H275.802L267.184 155.483C265.717 156.95 264.984 158.6 264.984 160.434C264.984 162.145 265.84 163.001 267.551 163.001C269.262 163.001 271.34 162.145 273.785 160.434C276.352 158.723 278.98 156.339 281.669 153.283L283.319 151.45H284.786L283.503 152.917Z" fill="#A5B82E"/>
<path d="M284.863 151.45H283.397L285.047 149.616C290.425 143.749 295.498 139.104 300.265 135.681C305.032 132.136 308.822 130.364 311.633 130.364C312.733 130.364 313.65 130.731 314.383 131.464C315.117 132.198 315.483 133.176 315.483 134.398C315.483 137.087 314.383 140.082 312.183 143.382C309.983 146.683 306.194 151.083 300.815 156.584H302.649L298.982 161.534L286.697 175.286H274.596C278.996 172.107 283.519 168.44 288.164 164.284C292.809 160.128 297.087 155.972 300.999 151.816C304.91 147.66 308.027 143.993 310.35 140.815C312.794 137.515 314.017 135.131 314.017 133.664C314.017 132.075 313.161 131.281 311.45 131.281C309.983 131.281 307.844 132.137 305.032 133.848C302.221 135.437 299.165 137.637 295.865 140.449C292.686 143.138 289.569 146.194 286.514 149.616L284.863 151.45ZM338.769 176.569C337.425 176.569 336.202 175.958 335.102 174.736C334.124 173.513 333.635 172.107 333.635 170.518C333.635 167.951 334.613 165.262 336.569 162.451C338.525 159.639 340.908 156.889 343.72 154.2C346.653 151.389 349.526 148.761 352.337 146.316C355.271 143.749 357.716 141.426 359.672 139.348C361.627 137.27 362.605 135.498 362.605 134.031C362.605 132.564 361.75 131.831 360.038 131.831C358.327 131.831 356.004 132.748 353.071 134.581C350.137 136.293 346.898 138.615 343.353 141.549C339.808 144.482 336.202 147.722 332.535 151.266C328.99 154.689 325.69 158.112 322.634 161.534H321.167C324.345 157.989 327.768 154.444 331.435 150.9C335.102 147.355 338.769 144.054 342.436 140.999C346.103 137.943 349.465 135.498 352.521 133.664C355.699 131.831 358.266 130.914 360.222 130.914C361.566 130.914 362.789 131.403 363.889 132.381C365.111 133.237 365.722 134.642 365.722 136.598C365.722 139.165 364.683 141.793 362.605 144.482C360.649 147.171 358.205 149.861 355.271 152.55C352.337 155.239 349.404 157.806 346.47 160.251C343.536 162.695 341.031 165.018 338.953 167.218C336.997 169.418 336.019 171.374 336.019 173.085C336.019 174.797 336.997 175.652 338.953 175.652C340.786 175.652 343.414 174.613 346.837 172.535C350.259 170.457 353.988 167.707 358.021 164.284C362.055 160.862 365.844 157.195 369.389 153.283L371.039 151.45H372.506L371.223 152.917C367.433 157.317 363.4 161.29 359.121 164.834C354.965 168.379 351.054 171.252 347.387 173.452C343.842 175.53 340.969 176.569 338.769 176.569ZM298.982 161.534H297.515L308.699 149.616C313.955 143.871 318.784 139.348 323.184 136.048C327.585 132.748 331.191 131.097 334.002 131.097C335.102 131.097 336.019 131.464 336.752 132.198C337.486 132.931 337.853 133.909 337.853 135.131C337.853 137.698 336.875 140.571 334.919 143.749C332.963 146.927 329.479 151.205 324.468 156.584H326.301L322.634 161.534L310.35 175.286H299.532C303.688 172.107 307.905 168.502 312.183 164.468C316.584 160.312 320.556 156.217 324.101 152.183C327.768 148.149 330.702 144.543 332.902 141.365C335.224 138.187 336.386 135.865 336.386 134.398C336.386 132.809 335.53 132.014 333.819 132.014C332.352 132.014 330.335 132.809 327.768 134.398C325.201 135.987 322.39 138.126 319.334 140.815C316.278 143.382 313.222 146.316 310.166 149.616L298.982 161.534Z" fill="#A5B82E"/>
<path d="M385.99 152.183L387.09 150.9H436.779L435.679 152.183H385.99Z" fill="#A5B82E"/>
<path d="M536.96 201.688C528.159 201.688 520.825 200.222 514.957 197.288C509.212 194.477 504.567 190.687 501.022 185.92C497.6 181.153 495.155 175.836 493.688 169.968C492.222 163.979 491.488 157.867 491.488 151.633C491.488 141.121 493.505 130.792 497.539 120.646C501.573 110.501 507.073 100.905 514.041 91.8599C521.008 82.6923 528.953 74.3191 537.876 66.7405C546.8 59.0397 556.151 52.3779 565.93 46.755C575.708 41.1322 585.426 36.7929 595.083 33.737C604.739 30.5589 613.785 28.9698 622.219 28.9698C626.619 28.9698 630.836 29.8254 634.87 31.5367C638.904 33.1258 642.204 35.815 644.771 39.6043C647.338 43.2713 648.622 48.2219 648.622 54.4559C648.622 62.1567 647.094 70.0409 644.038 78.1084C641.104 86.176 637.07 94.0602 631.937 101.761C626.803 109.462 620.997 116.735 614.518 123.58C608.162 130.303 601.561 136.231 594.716 141.365C587.871 146.499 581.209 150.533 574.73 153.467C568.374 156.4 562.568 157.867 557.312 157.867C552.911 157.867 549.061 156.217 545.761 152.917C542.46 149.616 540.81 144.666 540.81 138.065C540.81 132.442 541.971 126.575 544.294 120.463C546.616 114.351 549.733 108.301 553.645 102.311C557.556 96.3215 561.896 90.6987 566.663 85.4426C571.552 80.1864 576.442 75.4804 581.331 71.3244C586.343 67.1684 591.049 63.9291 595.449 61.6067C599.85 59.2842 603.578 58.1229 606.634 58.1229C609.69 58.1229 612.073 58.9175 613.785 60.5065C615.618 62.0956 616.535 64.2958 616.535 67.1072C616.535 72.2411 614.701 77.864 611.034 83.9757C607.367 90.0875 602.294 96.3215 595.816 102.678C589.338 108.912 581.759 114.901 573.08 120.646C564.524 126.391 555.234 131.525 545.211 136.048C535.31 140.571 525.103 144.177 514.591 146.866C504.078 149.555 493.627 150.9 483.237 150.9C475.047 150.9 467.285 149.983 459.951 148.149C452.617 146.316 446.2 143.688 440.699 140.265C435.076 136.843 430.676 132.809 427.498 128.164C424.32 123.397 422.731 118.141 422.731 112.395C422.731 104.695 424.931 97.7272 429.331 91.4932C433.61 85.137 439.721 79.6975 447.667 75.1748C455.612 70.6521 464.902 67.1684 475.536 64.7237C486.293 62.2789 497.967 61.0566 510.557 61.0566C524.247 61.0566 537.51 62.7679 550.344 66.1905C563.179 69.6131 575.097 74.3191 586.098 80.3087C597.222 86.176 606.878 92.8989 615.068 100.478L614.335 101.578C606.145 93.999 596.549 87.2761 585.548 81.4088C574.547 75.5415 562.69 70.8966 549.978 67.474C537.265 64.0514 524.125 62.3401 510.557 62.3401C498.578 62.3401 487.332 63.5624 476.82 66.0071C466.43 68.3296 457.262 71.6911 449.317 76.0916C441.372 80.492 435.199 85.8093 430.798 92.0433C426.276 98.155 424.014 105 424.014 112.579C424.014 120.035 426.764 126.575 432.265 132.198C437.643 137.698 444.855 141.976 453.901 145.032C462.946 148.088 472.847 149.616 483.604 149.616C493.627 149.616 503.834 148.333 514.224 145.766C524.614 143.077 534.698 139.532 544.477 135.131C554.378 130.609 563.546 125.536 571.98 119.913C580.537 114.168 588.054 108.239 594.533 102.128C601.011 95.8937 606.084 89.7819 609.751 83.7924C613.418 77.8028 615.251 72.2411 615.251 67.1072C615.251 64.907 614.518 63.0735 613.051 61.6067C611.707 60.0176 609.629 59.2231 606.817 59.2231C603.884 59.2231 600.278 60.3843 595.999 62.7068C591.721 65.0292 587.137 68.2074 582.248 72.2411C577.359 76.1527 572.53 80.7365 567.763 85.9926C562.996 91.1265 558.656 96.6271 554.745 102.494C550.833 108.362 547.716 114.229 545.394 120.096C543.071 125.964 541.91 131.648 541.91 137.148C541.91 143.749 543.438 148.638 546.494 151.816C549.55 154.995 553.156 156.584 557.312 156.584C562.446 156.584 568.191 155.117 574.547 152.183C581.026 149.249 587.626 145.216 594.349 140.082C601.072 134.948 607.551 129.081 613.785 122.48C620.141 115.757 625.825 108.606 630.836 101.028C635.97 93.3268 640.004 85.5037 642.938 77.5584C645.871 69.6131 647.338 61.9122 647.338 54.4559C647.338 48.4663 646.177 43.7603 643.855 40.3377C641.654 36.9151 638.721 34.4704 635.054 33.0036C631.509 31.5367 627.658 30.8033 623.502 30.8033C616.535 30.8033 608.712 32.5757 600.033 36.1206C591.354 39.6654 582.37 44.6159 573.08 50.9722C563.913 57.2062 554.989 64.5403 546.311 72.9745C537.754 81.2866 529.992 90.332 523.025 100.111C516.18 109.767 510.679 119.791 506.523 130.181C502.489 140.571 500.472 150.961 500.472 161.351C500.472 169.052 501.695 175.836 504.139 181.703C506.584 187.57 510.496 192.154 515.874 195.454C521.252 198.755 528.281 200.405 536.96 200.405C543.071 200.405 549.733 199.244 556.945 196.921C564.157 194.599 571.491 191.298 578.948 187.02C586.526 182.864 593.921 177.914 601.133 172.169C608.467 166.301 615.19 159.945 621.302 153.1L622.769 151.45H624.236L622.769 153.1C616.413 160.19 609.568 166.729 602.233 172.719C594.899 178.586 587.382 183.659 579.681 187.937C572.102 192.337 564.646 195.699 557.312 198.021C549.978 200.466 543.194 201.688 536.96 201.688Z" fill="#A5B82E"/>
<path d="M619.407 176.569C617.94 176.569 616.84 175.897 616.107 174.552C615.251 173.208 614.823 171.374 614.823 169.052C614.823 165.873 615.801 162.512 617.757 158.967C619.59 155.422 622.096 152 625.274 148.699C628.452 145.277 631.997 142.221 635.909 139.532C639.82 136.72 643.854 134.52 648.01 132.931C652.288 131.342 656.322 130.547 660.111 130.547C663.289 130.547 664.879 131.77 664.879 134.214C664.879 136.537 663.412 139.471 660.478 143.015C657.544 146.438 653.877 150.472 649.477 155.117C645.932 158.784 642.204 162.268 638.292 165.568C634.503 168.746 630.958 171.374 627.658 173.452C624.358 175.53 621.607 176.569 619.407 176.569ZM619.59 175.652C621.424 175.652 623.807 174.736 626.741 172.902C629.797 171.068 633.22 168.563 637.009 165.385C640.798 162.206 644.71 158.539 648.743 154.383C653.144 149.738 656.689 145.766 659.378 142.465C662.189 139.165 663.595 136.476 663.595 134.398C663.595 132.809 662.556 132.014 660.478 132.014C658.645 132.014 656.261 132.748 653.327 134.214C650.516 135.681 647.46 137.698 644.16 140.265C640.859 142.71 637.62 145.46 634.442 148.516C631.264 151.572 628.33 154.628 625.641 157.684C623.074 160.74 620.996 163.612 619.407 166.301C617.818 168.99 617.023 171.252 617.023 173.085C617.023 174.797 617.879 175.652 619.59 175.652ZM665.429 152.917C662.373 156.339 659.439 159.028 656.628 160.984C653.816 162.94 651.372 163.918 649.294 163.918C645.993 163.918 644.343 162.206 644.343 158.784C644.343 156.828 644.832 154.933 645.81 153.1C646.788 151.144 648.499 148.761 650.944 145.949H657.728L649.11 155.483C647.643 156.95 646.91 158.6 646.91 160.434C646.91 162.145 647.766 163.001 649.477 163.001C651.188 163.001 653.266 162.145 655.711 160.434C658.278 158.723 660.906 156.339 663.595 153.283L665.245 151.45H666.712L665.429 152.917Z" fill="#A5B82E"/>
<path d="M666.789 151.45H665.323L666.973 149.616C672.351 143.749 677.424 139.104 682.191 135.681C686.958 132.136 690.748 130.364 693.559 130.364C694.659 130.364 695.576 130.731 696.309 131.464C697.043 132.198 697.409 133.176 697.409 134.398C697.409 137.087 696.309 140.082 694.109 143.382C691.909 146.683 688.12 151.083 682.741 156.584H684.575L680.908 161.534L668.623 175.286H656.522C660.922 172.107 665.445 168.44 670.09 164.284C674.735 160.128 679.013 155.972 682.925 151.816C686.836 147.66 689.953 143.993 692.276 140.815C694.72 137.515 695.943 135.131 695.943 133.664C695.943 132.075 695.087 131.281 693.376 131.281C691.909 131.281 689.77 132.137 686.958 133.848C684.147 135.437 681.091 137.637 677.791 140.449C674.613 143.138 671.496 146.194 668.44 149.616L666.789 151.45ZM720.695 176.569C719.351 176.569 718.128 175.958 717.028 174.736C716.05 173.513 715.561 172.107 715.561 170.518C715.561 167.951 716.539 165.262 718.495 162.451C720.451 159.639 722.834 156.889 725.646 154.2C728.579 151.389 731.452 148.761 734.263 146.316C737.197 143.749 739.642 141.426 741.598 139.348C743.553 137.27 744.531 135.498 744.531 134.031C744.531 132.564 743.676 131.831 741.964 131.831C740.253 131.831 737.93 132.748 734.997 134.581C732.063 136.293 728.824 138.615 725.279 141.549C721.734 144.482 718.128 147.722 714.461 151.266C710.917 154.689 707.616 158.112 704.56 161.534H703.093C706.271 157.989 709.694 154.444 713.361 150.9C717.028 147.355 720.695 144.054 724.362 140.999C728.029 137.943 731.391 135.498 734.447 133.664C737.625 131.831 740.192 130.914 742.148 130.914C743.492 130.914 744.715 131.403 745.815 132.381C747.037 133.237 747.648 134.642 747.648 136.598C747.648 139.165 746.609 141.793 744.531 144.482C742.575 147.171 740.131 149.861 737.197 152.55C734.263 155.239 731.33 157.806 728.396 160.251C725.462 162.695 722.957 165.018 720.879 167.218C718.923 169.418 717.945 171.374 717.945 173.085C717.945 174.797 718.923 175.652 720.879 175.652C722.712 175.652 725.34 174.613 728.763 172.535C732.185 170.457 735.914 167.707 739.947 164.284C743.981 160.862 747.77 157.195 751.315 153.283L752.965 151.45H754.432L753.149 152.917C749.359 157.317 745.326 161.29 741.047 164.834C736.891 168.379 732.98 171.252 729.313 173.452C725.768 175.53 722.896 176.569 720.695 176.569ZM680.908 161.534H679.441L690.625 149.616C695.881 143.871 700.71 139.348 705.11 136.048C709.511 132.748 713.117 131.097 715.928 131.097C717.028 131.097 717.945 131.464 718.678 132.198C719.412 132.931 719.779 133.909 719.779 135.131C719.779 137.698 718.801 140.571 716.845 143.749C714.889 146.927 711.405 151.205 706.394 156.584H708.227L704.56 161.534L692.276 175.286H681.458C685.614 172.107 689.831 168.502 694.109 164.468C698.51 160.312 702.482 156.217 706.027 152.183C709.694 148.149 712.628 144.543 714.828 141.365C717.15 138.187 718.312 135.865 718.312 134.398C718.312 132.809 717.456 132.014 715.745 132.014C714.278 132.014 712.261 132.809 709.694 134.398C707.127 135.987 704.316 138.126 701.26 140.815C698.204 143.382 695.148 146.316 692.092 149.616L680.908 161.534Z" fill="#A5B82E"/>
<path d="M754.348 151.45H752.881L754.531 149.616C763.21 140.082 770.177 132.259 775.433 126.147C780.812 120.035 784.357 115.757 786.068 113.312H792.118C788.329 116.124 783.623 120.341 778 125.964C772.5 131.586 765.227 139.41 756.181 149.433L754.348 151.45ZM789.185 152.917C784.051 158.784 778.673 163.245 773.05 166.301C767.549 169.357 762.11 170.885 756.731 170.885C752.698 170.885 749.336 171.252 746.647 171.985C743.835 172.719 742.43 173.635 742.43 174.736C742.43 175.347 742.98 175.652 744.08 175.652C747.869 175.652 751.536 174.613 755.081 172.535C758.748 170.457 762.049 167.707 764.982 164.284C767.916 160.862 770.238 157.011 771.95 152.733C773.661 148.333 774.517 143.871 774.517 139.348C774.517 136.659 774.7 134.276 775.067 132.198C775.556 130.12 776.472 127.98 777.817 125.78C779.161 123.458 781.301 120.769 784.234 117.713L791.935 113.312C788.635 115.879 786.007 118.018 784.051 119.73C782.217 121.319 780.934 122.785 780.201 124.13C779.467 125.352 779.1 126.697 779.1 128.164C779.1 129.753 779.345 131.953 779.834 134.765C780.445 137.454 780.751 140.204 780.751 143.015C780.751 147.171 779.712 151.266 777.634 155.3C775.556 159.212 772.744 162.818 769.199 166.118C765.654 169.296 761.743 171.863 757.465 173.819C753.186 175.652 748.847 176.569 744.447 176.569C742.491 176.569 741.513 175.958 741.513 174.736C741.513 173.391 742.98 172.291 745.913 171.435C748.847 170.457 752.392 169.968 756.548 169.968C766.938 169.968 777.206 164.407 787.351 153.283L789.001 151.45H790.468L789.185 152.917Z" fill="#A5B82E"/>
</svg>
