<svg width="670" height="348" viewBox="0 0 670 348" fill="none" xmlns="http://www.w3.org/2000/svg">
<path d="M301.413 113.029V110.387C301.413 99.7053 303.356 92.0437 307.243 87.402C311.13 82.7324 316.275 80.3975 322.678 80.3975C328.858 80.3975 333.583 82.0753 336.855 85.4307C340.126 88.7582 341.762 93.5117 341.762 99.6913L341.804 101.033H338.323V99.7752C338.295 94.3506 336.967 90.2681 334.338 87.5278C331.71 84.7876 327.809 83.4174 322.636 83.4174C316.988 83.4174 312.612 85.5425 309.508 89.7928C306.432 94.043 304.894 100.824 304.894 110.135V113.281C304.894 122.648 306.474 129.471 309.634 133.749C312.794 138.027 317.17 140.166 322.762 140.166C327.879 140.166 331.738 138.796 334.338 136.056C336.967 133.316 338.295 129.247 338.323 123.85V122.592H341.804L341.762 124.186C341.734 130.058 340.112 134.7 336.897 138.111C333.681 141.494 328.9 143.186 322.552 143.186C315.841 143.186 310.641 140.837 306.95 136.14C303.259 131.442 301.413 123.739 301.413 113.029ZM348.557 113.029V110.387C348.557 99.7332 350.514 92.0717 354.429 87.402C358.344 82.7324 363.475 80.3975 369.822 80.3975C376.197 80.3975 381.328 82.7324 385.215 87.402C389.13 92.0717 391.087 99.7332 391.087 110.387V113.029C391.087 123.85 389.13 131.596 385.215 136.266C381.328 140.907 376.197 143.228 369.822 143.228C363.475 143.228 358.344 140.907 354.429 136.266C350.514 131.596 348.557 123.85 348.557 113.029ZM352.038 113.281C352.038 122.984 353.646 129.89 356.862 134.001C360.077 138.111 364.397 140.166 369.822 140.166C375.247 140.166 379.567 138.111 382.782 134.001C385.998 129.89 387.606 122.97 387.606 113.239V110.135C387.606 100.6 385.998 93.7773 382.782 89.6669C379.567 85.5286 375.247 83.4594 369.822 83.4594C364.397 83.4594 360.077 85.5286 356.862 89.6669C353.646 93.7773 352.038 100.6 352.038 110.135V113.281ZM400.692 142.347V81.2783H405.222L424.39 134.043C424.669 134.742 424.921 135.469 425.145 136.224C425.369 136.951 425.55 137.678 425.69 138.405H425.816C425.956 137.678 426.137 136.951 426.361 136.224C426.613 135.469 426.864 134.742 427.116 134.043L446.074 81.2783H450.73V142.347H447.375V90.4219C447.375 89.7508 447.375 89.0098 447.375 88.1989C447.403 87.3601 447.444 86.5771 447.5 85.8501H447.333C447.165 86.5771 446.955 87.3461 446.703 88.157C446.48 88.9679 446.242 89.7229 445.99 90.4219L427.284 142.347H424.054L405.138 90.4639C404.914 89.8207 404.649 88.9819 404.341 87.9473C404.061 86.9127 403.908 86.2416 403.88 85.934H403.712C403.74 86.2416 403.768 86.9267 403.796 87.9892C403.852 89.0238 403.88 89.8627 403.88 90.5058V142.347H400.692ZM462.348 142.347V81.2783H492.799V84.3402H465.746V109.254H488.688V112.316H465.746V139.285H493.218V142.347H462.348ZM500.6 142.347V81.2783H514.19C521.6 81.2783 527.374 83.9208 531.512 89.2056C535.651 94.4624 537.72 101.551 537.72 110.471V113.155C537.72 122.382 535.609 129.555 531.386 134.672C527.164 139.789 521.432 142.347 514.19 142.347H500.6ZM503.998 139.285H514.19C520.285 139.285 525.151 137.007 528.786 132.449C532.421 127.891 534.238 121.46 534.238 113.155V110.513C534.238 102.432 532.449 96.0562 528.87 91.3866C525.291 86.689 520.397 84.3402 514.19 84.3402H503.998V139.285ZM547.66 142.347V81.2783H551.058V142.347H547.66ZM556.972 142.347L576.433 81.0267H580.963L600.424 142.347H596.943L580.124 89.3733C579.788 88.2828 579.509 87.402 579.285 86.7309C579.089 86.0319 578.866 85.221 578.614 84.2982H578.488C578.209 85.221 577.957 86.0459 577.733 86.7729C577.51 87.4999 577.244 88.3807 576.936 89.4153L560.327 142.347H556.972ZM564.27 124.438L565.15 121.586H592.162L593.084 124.438H564.27ZM603.696 126.619V123.683H607.093V126.451C607.093 130.981 608.38 134.406 610.952 136.727C613.553 139.048 617.118 140.208 621.648 140.208C626.177 140.208 629.673 139.062 632.133 136.769C634.622 134.448 635.866 131.386 635.866 127.583C635.866 123.92 634.846 121.054 632.804 118.985C630.791 116.888 626.904 114.763 621.144 112.61C615.44 110.457 611.274 108.206 608.645 105.857C606.017 103.508 604.703 99.943 604.703 95.1615C604.703 90.7435 606.157 87.1783 609.065 84.466C611.973 81.7537 616.097 80.3975 621.438 80.3975C626.807 80.3975 630.931 81.8656 633.811 84.8016C636.719 87.7096 638.173 91.5124 638.173 96.21V98.5169H634.776V96.252C634.776 92.533 633.685 89.4712 631.504 87.0665C629.323 84.6617 625.982 83.4594 621.48 83.4594C616.866 83.4594 613.483 84.48 611.33 86.5212C609.177 88.5624 608.1 91.4146 608.1 95.0776C608.1 98.5728 609.135 101.313 611.204 103.298C613.301 105.284 617.216 107.353 622.948 109.506C628.68 111.631 632.832 114.036 635.405 116.72C637.977 119.404 639.264 122.998 639.264 127.499C639.264 132.197 637.67 136 634.482 138.908C631.322 141.788 627.044 143.228 621.648 143.228C616.195 143.228 611.833 141.802 608.561 138.95C605.318 136.07 603.696 131.959 603.696 126.619Z" fill="#FDA1B1"/>
<path d="M278.856 245V237.613L272.304 225.372H275.58L279.705 233.339C279.84 233.6 279.961 233.842 280.069 234.067C280.177 234.292 280.28 234.525 280.379 234.768H280.446C280.545 234.525 280.648 234.292 280.756 234.067C280.864 233.842 280.986 233.6 281.12 233.339L285.286 225.372H288.319L281.808 237.559V245H278.856ZM295.787 239.635V239.163H298.699V239.581C298.699 240.731 299.054 241.594 299.764 242.169C300.483 242.735 301.485 243.018 302.77 243.018C304.056 243.018 305.04 242.735 305.723 242.169C306.406 241.603 306.747 240.852 306.747 239.918C306.747 239.046 306.419 238.354 305.763 237.842C305.116 237.329 303.849 236.786 301.962 236.211C299.939 235.599 298.461 234.867 297.526 234.013C296.601 233.159 296.138 231.951 296.138 230.387C296.138 228.805 296.718 227.516 297.877 226.518C299.036 225.511 300.631 225.008 302.662 225.008C304.667 225.008 306.271 225.52 307.475 226.545C308.679 227.569 309.282 228.926 309.282 230.616V230.994H306.383V230.67C306.383 229.663 306.069 228.864 305.44 228.27C304.819 227.668 303.898 227.367 302.676 227.367C301.427 227.367 300.51 227.623 299.926 228.136C299.342 228.648 299.05 229.344 299.05 230.225C299.05 231.043 299.36 231.69 299.98 232.166C300.6 232.634 301.867 233.155 303.781 233.73C305.777 234.332 307.255 235.087 308.217 235.995C309.178 236.903 309.659 238.17 309.659 239.796C309.659 241.477 309.034 242.825 307.785 243.841C306.545 244.856 304.878 245.364 302.784 245.364C300.69 245.364 299 244.865 297.715 243.868C296.43 242.87 295.787 241.459 295.787 239.635ZM312.49 238.314V225.372H315.429V238.435C315.429 240.035 315.793 241.194 316.521 241.913C317.258 242.632 318.242 242.991 319.473 242.991C320.695 242.991 321.67 242.632 322.398 241.913C323.135 241.194 323.504 240.035 323.504 238.435V225.372H326.429V238.314C326.429 240.695 325.773 242.466 324.461 243.625C323.158 244.784 321.495 245.364 319.473 245.364C317.442 245.364 315.77 244.784 314.458 243.625C313.146 242.466 312.49 240.695 312.49 238.314ZM336.607 245V225.372H348.645V227.745H339.519V233.744H347.405V236.049H339.519V242.641H348.794V245H336.607ZM349.495 225.372H352.622L357.502 239.864C357.592 240.133 357.668 240.385 357.731 240.619C357.803 240.843 357.871 241.077 357.933 241.32H358.041C358.095 241.077 358.158 240.839 358.23 240.605C358.302 240.363 358.383 240.115 358.473 239.864L363.407 225.372H366.318L359.416 245.108H356.397L349.495 225.372ZM367.356 235.779V234.593C367.356 231.438 368.107 229.052 369.608 227.435C371.118 225.817 373.059 225.008 375.431 225.008C377.813 225.008 379.754 225.817 381.255 227.435C382.765 229.052 383.52 231.438 383.52 234.593V235.779C383.52 238.934 382.765 241.32 381.255 242.937C379.754 244.555 377.813 245.364 375.431 245.364C373.059 245.364 371.118 244.555 369.608 242.937C368.107 241.32 367.356 238.934 367.356 235.779ZM370.376 236.008C370.376 238.336 370.834 240.084 371.751 241.252C372.668 242.421 373.895 243.005 375.431 243.005C376.977 243.005 378.208 242.421 379.125 241.252C380.051 240.084 380.514 238.336 380.514 236.008V234.364C380.514 232.045 380.051 230.302 379.125 229.133C378.208 227.965 376.977 227.381 375.431 227.381C373.895 227.381 372.668 227.965 371.751 229.133C370.834 230.302 370.376 232.045 370.376 234.364V236.008ZM386.89 245V225.372H389.829V242.627H398.497V245H386.89ZM400.249 238.314V225.372H403.188V238.435C403.188 240.035 403.552 241.194 404.28 241.913C405.017 242.632 406.001 242.991 407.232 242.991C408.455 242.991 409.43 242.632 410.158 241.913C410.895 241.194 411.263 240.035 411.263 238.435V225.372H414.188V238.314C414.188 240.695 413.532 242.466 412.22 243.625C410.917 244.784 409.255 245.364 407.232 245.364C405.201 245.364 403.53 244.784 402.218 243.625C400.905 242.466 400.249 240.695 400.249 238.314ZM417.37 235.779V234.593C417.37 231.438 418.12 229.052 419.621 227.435C421.131 225.817 423.05 225.008 425.377 225.008C427.669 225.008 429.458 225.624 430.743 226.855C432.028 228.077 432.671 229.654 432.671 231.587V231.937H429.745V231.533C429.745 230.257 429.381 229.246 428.653 228.5C427.934 227.754 426.842 227.381 425.377 227.381C423.877 227.381 422.672 227.947 421.765 229.079C420.857 230.203 420.403 231.96 420.403 234.35V236.022C420.403 238.287 420.857 240.017 421.765 241.212C422.681 242.407 423.895 243.005 425.404 243.005C426.797 243.005 427.849 242.627 428.559 241.872C429.269 241.109 429.66 240.089 429.732 238.812L429.745 238.448H432.671V238.853C432.563 240.731 431.893 242.286 430.662 243.517C429.44 244.748 427.674 245.364 425.364 245.364C422.982 245.364 421.055 244.551 419.581 242.924C418.107 241.288 417.37 238.907 417.37 235.779ZM435.771 245V225.372H438.723V245H435.771ZM442.147 235.779V234.593C442.147 231.438 442.898 229.052 444.399 227.435C445.909 225.817 447.85 225.008 450.222 225.008C452.604 225.008 454.545 225.817 456.046 227.435C457.556 229.052 458.311 231.438 458.311 234.593V235.779C458.311 238.934 457.556 241.32 456.046 242.937C454.545 244.555 452.604 245.364 450.222 245.364C447.85 245.364 445.909 244.555 444.399 242.937C442.898 241.32 442.147 238.934 442.147 235.779ZM445.167 236.008C445.167 238.336 445.626 240.084 446.542 241.252C447.459 242.421 448.686 243.005 450.222 243.005C451.768 243.005 452.999 242.421 453.916 241.252C454.842 240.084 455.305 238.336 455.305 236.008V234.364C455.305 232.045 454.842 230.302 453.916 229.133C452.999 227.965 451.768 227.381 450.222 227.381C448.686 227.381 447.459 227.965 446.542 229.133C445.626 230.302 445.167 232.045 445.167 234.364V236.008ZM448.187 222.555L451.476 217.958L453.876 219.414L450.115 223.498L448.187 222.555ZM461.681 245V225.372H464.782L472.708 238.853C472.87 239.131 473.018 239.41 473.153 239.689C473.288 239.958 473.4 240.219 473.49 240.47H473.598C473.58 240.183 473.567 239.882 473.558 239.567C473.558 239.244 473.558 238.938 473.558 238.651V225.372H476.254V245H473.153L465.213 231.506C465.051 231.236 464.903 230.967 464.768 230.697C464.642 230.418 464.53 230.149 464.431 229.888H464.337C464.355 230.176 464.364 230.486 464.364 230.818C464.373 231.142 464.377 231.452 464.377 231.748V245H461.681ZM486.62 245V225.372H498.659V227.745H489.532V233.744H497.418V236.049H489.532V242.641H498.807V245H486.62ZM501.557 245V225.372H504.658L512.584 238.853C512.746 239.131 512.894 239.41 513.029 239.689C513.164 239.958 513.276 240.219 513.366 240.47H513.474C513.456 240.183 513.443 239.882 513.434 239.567C513.434 239.244 513.434 238.938 513.434 238.651V225.372H516.13V245H513.029L505.089 231.506C504.927 231.236 504.779 230.967 504.644 230.697C504.518 230.418 504.406 230.149 504.307 229.888H504.213C504.231 230.176 504.24 230.486 504.24 230.818C504.249 231.142 504.253 231.452 504.253 231.748V245H501.557ZM526.496 245V225.372H538.535V227.745H529.408V233.744H537.294V236.049H529.408V242.641H538.683V245H526.496ZM541.433 245V225.372H544.372V242.627H553.04V245H541.433ZM559.659 227.745V225.372H574.474V227.745H568.543V245H565.59V227.745H559.659ZM576.833 245V225.372H579.786V245H576.833ZM583.897 245V225.372H595.936V227.745H586.809V233.744H594.695V236.049H586.809V242.641H596.084V245H583.897ZM598.834 245V225.372H602.689L608.014 239.567C608.122 239.855 608.221 240.142 608.311 240.43C608.401 240.718 608.477 241.014 608.54 241.32H608.634C608.697 241.014 608.774 240.718 608.864 240.43C608.953 240.142 609.052 239.855 609.16 239.567L614.472 225.372H618.367V245H615.483V231.209C615.483 230.922 615.487 230.598 615.496 230.239C615.505 229.879 615.523 229.56 615.55 229.281H615.456C615.402 229.569 615.321 229.888 615.213 230.239C615.114 230.589 615.011 230.913 614.903 231.209L609.767 245H607.205L602.056 231.209C601.948 230.922 601.84 230.589 601.732 230.212C601.624 229.825 601.552 229.515 601.517 229.281H601.422C601.449 229.515 601.467 229.825 601.476 230.212C601.494 230.589 601.503 230.922 601.503 231.209V245H598.834ZM622.425 245V225.372H629.031C631.134 225.372 632.738 225.925 633.843 227.03C634.958 228.127 635.515 229.601 635.515 231.452C635.515 233.303 634.962 234.786 633.857 235.901C632.751 237.015 631.143 237.572 629.031 237.572H625.364V245H622.425ZM625.364 235.267H628.828C630.221 235.267 631.192 234.907 631.74 234.188C632.298 233.461 632.576 232.553 632.576 231.465C632.576 230.378 632.298 229.479 631.74 228.769C631.192 228.059 630.221 227.704 628.828 227.704H625.364V235.267ZM637.564 235.779V234.593C637.564 231.438 638.314 229.052 639.815 227.435C641.325 225.817 643.266 225.008 645.639 225.008C648.021 225.008 649.962 225.817 651.463 227.435C652.972 229.052 653.727 231.438 653.727 234.593V235.779C653.727 238.934 652.972 241.32 651.463 242.937C649.962 244.555 648.021 245.364 645.639 245.364C643.266 245.364 641.325 244.555 639.815 242.937C638.314 241.32 637.564 238.934 637.564 235.779ZM640.584 236.008C640.584 238.336 641.042 240.084 641.959 241.252C642.875 242.421 644.102 243.005 645.639 243.005C647.185 243.005 648.416 242.421 649.333 241.252C650.258 240.084 650.721 238.336 650.721 236.008V234.364C650.721 232.045 650.258 230.302 649.333 229.133C648.416 227.965 647.185 227.381 645.639 227.381C644.102 227.381 642.875 227.965 641.959 229.133C641.042 230.302 640.584 232.045 640.584 234.364V236.008Z" fill="#383838"/>
<path d="M210.371 153.644C206.215 153.644 202.976 152.789 200.653 151.077C198.453 149.366 197.353 147.655 197.353 145.943C197.353 144.11 198.087 142.704 199.553 141.726C201.02 140.748 202.732 140.259 204.687 140.259C206.888 140.259 209.21 140.932 211.655 142.276C214.099 143.621 216.177 145.699 217.889 148.51C219.6 151.322 220.456 155.05 220.456 159.695C220.456 166.785 219.722 173.813 218.255 180.781C216.911 187.626 215.505 194.165 214.038 200.399C212.571 206.633 211.838 212.378 211.838 217.634C211.838 225.091 213.122 231.264 215.688 236.153C218.255 241.043 222.717 243.487 229.073 243.487C231.885 243.487 234.268 243.059 236.224 242.204C238.18 241.47 239.952 240.431 241.541 239.087L242.091 239.637C240.38 241.104 238.424 242.265 236.224 243.121C234.024 244.098 231.518 244.587 228.707 244.587C221.25 244.587 215.75 241.837 212.205 236.337C208.782 230.836 207.071 223.746 207.071 215.068C207.071 209.934 207.621 204.8 208.721 199.666C209.821 194.41 211.105 189.215 212.571 184.081C214.038 178.825 215.322 173.752 216.422 168.863C217.522 163.851 218.072 159.084 218.072 154.561C218.072 151.016 216.789 148.021 214.222 145.577C211.655 143.01 208.599 141.726 205.054 141.726C203.098 141.726 201.57 142.154 200.47 143.01C199.37 143.865 198.82 144.966 198.82 146.31C198.82 148.021 199.92 149.488 202.12 150.711C204.443 151.933 207.193 152.544 210.371 152.544C221.372 152.544 231.212 150.222 239.891 145.577C248.57 140.81 255.354 134.392 260.243 126.325C265.255 118.135 267.761 108.845 267.761 98.4549C267.761 89.2873 265.499 80.7308 260.977 72.7855C256.454 64.8402 250.159 57.8728 242.091 51.8832C234.024 45.8937 224.612 41.2488 213.855 37.9484C203.098 34.5258 191.547 32.8145 179.201 32.8145C168.078 32.8145 157.749 34.2813 148.215 37.215C138.68 40.1486 130.307 44.2435 123.095 49.4997C116.005 54.7558 110.444 60.9287 106.41 68.0183C102.376 74.9857 100.359 82.5032 100.359 90.5708C100.359 99.2495 102.743 106.828 107.51 113.307C112.4 119.785 119.184 124.858 127.862 128.525C136.541 132.07 146.687 133.842 158.299 133.842C167.467 133.842 175.779 132.192 183.235 128.892C190.691 125.591 196.62 121.13 201.02 115.507C205.421 109.762 207.621 103.467 207.621 96.6214C207.621 88.6761 204.504 82.3199 198.27 77.5527L199.187 76.8193C205.665 81.8309 208.904 88.3705 208.904 96.4381C208.904 103.528 206.643 110.006 202.12 115.873C197.598 121.741 191.486 126.386 183.785 129.808C176.206 133.231 167.65 134.942 158.116 134.942C146.381 134.942 136.052 133.109 127.129 129.442C118.328 125.775 111.483 120.641 106.593 114.04C101.704 107.317 99.2592 99.5551 99.2592 90.7541C99.2592 82.4421 101.276 74.7413 105.31 67.6516C109.344 60.4397 114.966 54.1446 122.178 48.7662C129.512 43.3879 138.008 39.2319 147.664 36.2982C157.443 33.2423 167.956 31.7144 179.201 31.7144C191.914 31.7144 203.648 33.4257 214.405 36.8483C225.284 40.1486 234.818 44.8547 243.008 50.9665C251.198 56.956 257.554 64.0457 262.077 72.2354C266.6 80.303 268.861 89.0428 268.861 98.4549C268.861 108.967 266.294 118.379 261.16 126.691C256.148 135.003 249.242 141.604 240.441 146.493C231.64 151.261 221.617 153.644 210.371 153.644ZM247.042 95.1546C250.587 91.1208 254.315 87.4538 258.226 84.1534C262.138 80.853 266.233 77.9805 270.511 75.5358H279.862C276.684 76.2692 273.2 77.6138 269.411 79.5696C265.744 81.5253 262.077 83.97 258.41 86.9037C254.743 89.7151 251.32 92.8321 248.142 96.2547C242.152 102.978 236.591 110.495 231.457 118.807C226.445 126.997 221.495 135.431 216.605 144.11C211.838 152.789 206.765 161.223 201.387 169.413C196.009 177.48 189.958 184.814 183.235 191.415C177.245 197.282 170.095 202.355 161.783 206.633C153.471 210.912 144.547 214.212 135.013 216.534C125.479 218.979 115.822 220.201 106.043 220.201C92.2307 220.201 80.2516 218.123 70.1061 213.967C60.0828 209.934 52.3208 204.189 46.8202 196.732C41.4419 189.154 38.7527 180.169 38.7527 169.779C38.7527 162.201 40.6473 155.172 44.4366 148.694C48.2259 142.093 53.482 136.287 60.205 131.275C67.0502 126.263 74.8732 122.352 83.6742 119.541C92.5974 116.729 102.071 115.323 112.094 115.323C121.995 115.323 130.613 116.668 137.947 119.357C145.281 121.924 150.904 125.591 154.815 130.358C158.849 135.126 160.866 140.748 160.866 147.227C160.866 152.85 159.338 158.167 156.282 163.179C153.348 168.19 149.254 172.591 143.997 176.38C138.863 180.169 132.813 183.164 125.845 185.364C119 187.442 111.666 188.481 103.843 188.481C94.0642 188.481 86.3023 186.77 80.5572 183.347C74.8121 179.803 71.9396 175.035 71.9396 169.046C71.9396 163.912 74.3232 159.267 79.0904 155.111C83.9798 150.955 90.4583 147.655 98.5258 145.21C106.593 142.643 115.455 141.36 125.112 141.36C135.38 141.36 144.853 142.582 153.532 145.027C162.21 147.471 169.728 150.894 176.084 155.294C182.44 159.695 187.391 164.89 190.936 170.879C194.481 176.869 196.253 183.409 196.253 190.498C196.253 199.421 193.992 207.733 189.469 215.434C184.946 223.135 178.59 229.858 170.4 235.603C162.333 241.348 152.859 245.81 141.98 248.988C131.224 252.288 119.55 253.938 106.96 253.938C91.4361 253.938 77.1346 251.86 64.0554 247.704C51.0985 243.548 39.9139 237.681 30.5018 230.102C21.0897 222.524 13.8166 213.54 8.68276 203.15C3.42664 192.76 0.798574 181.331 0.798574 168.863C0.798574 156.395 3.42664 144.966 8.68276 134.576C13.8166 124.185 21.0897 115.201 30.5018 107.623C40.0361 99.9218 51.2818 93.9933 64.2388 89.8373C77.1957 85.6813 91.4361 83.6033 106.96 83.6033C117.717 83.6033 127.679 84.8257 136.847 87.2704C146.136 89.7151 154.082 93.1377 160.683 97.5382C167.405 101.816 172.234 106.828 175.167 112.573L174.067 112.94C171.256 107.195 166.55 102.244 159.949 98.0882C153.471 93.81 145.648 90.5096 136.48 88.1872C127.434 85.8647 117.595 84.7034 106.96 84.7034C91.5584 84.7034 77.4402 86.7815 64.6055 90.9375C51.7707 94.9712 40.6473 100.777 31.2352 108.356C21.9453 115.812 14.7334 124.674 9.59952 134.942C4.46564 145.21 1.89869 156.517 1.89869 168.863C1.89869 181.208 4.46564 192.515 9.59952 202.783C14.7334 213.051 21.9453 221.913 31.2352 229.369C40.6473 236.825 51.7707 242.571 64.6055 246.604C77.4402 250.76 91.5584 252.838 106.96 252.838C119.428 252.838 130.979 251.249 141.614 248.071C152.371 244.893 161.722 240.493 169.667 234.87C177.734 229.247 183.968 222.646 188.369 215.068C192.892 207.489 195.153 199.299 195.153 190.498C195.153 181.208 192.097 173.019 185.985 165.929C179.996 158.717 171.684 153.033 161.049 148.877C150.537 144.721 138.497 142.643 124.929 142.643C115.517 142.643 106.838 143.865 98.8925 146.31C91.0694 148.633 84.7743 151.811 80.0071 155.844C75.3622 159.756 73.0397 164.095 73.0397 168.863C73.0397 174.485 75.79 179.008 81.2906 182.431C86.9134 185.731 94.4309 187.381 103.843 187.381C111.422 187.381 118.572 186.342 125.295 184.264C132.141 182.064 138.13 179.13 143.264 175.463C148.398 171.796 152.432 167.579 155.365 162.812C158.299 157.922 159.766 152.727 159.766 147.227C159.766 140.993 157.749 135.615 153.715 131.092C149.804 126.447 144.303 122.841 137.213 120.274C130.124 117.707 121.751 116.424 112.094 116.424C102.193 116.424 92.903 117.829 84.2243 120.641C75.5455 123.452 67.8447 127.303 61.1218 132.192C54.521 137.081 49.326 142.765 45.5367 149.244C41.7474 155.6 39.8528 162.445 39.8528 169.779C39.8528 182.981 45.4145 193.31 56.5379 200.766C67.7836 208.1 83.3686 211.767 103.293 211.767C115.517 211.767 126.457 209.934 136.113 206.267C145.77 202.6 154.754 197.405 163.066 190.682C171.5 183.836 179.873 175.647 188.185 166.112C196.62 156.456 205.543 145.699 214.955 133.842C224.489 121.863 235.185 108.967 247.042 95.1546ZM238.28 208.283C236.813 208.283 235.713 207.611 234.979 206.267C234.124 204.922 233.696 203.088 233.696 200.766C233.696 197.588 234.674 194.226 236.629 190.682C238.463 187.137 240.969 183.714 244.147 180.414C247.325 176.991 250.87 173.935 254.781 171.246C258.693 168.435 262.727 166.234 266.883 164.645C271.161 163.056 275.195 162.262 278.984 162.262C282.162 162.262 283.751 163.484 283.751 165.929C283.751 168.251 282.284 171.185 279.351 174.73C276.417 178.152 272.75 182.186 268.349 186.831C264.805 190.498 261.076 193.982 257.165 197.282C253.376 200.46 249.831 203.088 246.53 205.166C243.23 207.244 240.48 208.283 238.28 208.283ZM238.463 207.367C240.296 207.367 242.68 206.45 245.614 204.616C248.67 202.783 252.092 200.277 255.881 197.099C259.671 193.921 263.582 190.254 267.616 186.098C272.017 181.453 275.561 177.48 278.251 174.18C281.062 170.879 282.468 168.19 282.468 166.112C282.468 164.523 281.429 163.729 279.351 163.729C277.517 163.729 275.134 164.462 272.2 165.929C269.388 167.396 266.333 169.413 263.032 171.98C259.732 174.424 256.493 177.175 253.315 180.23C250.136 183.286 247.203 186.342 244.514 189.398C241.947 192.454 239.869 195.327 238.28 198.016C236.69 200.705 235.896 202.966 235.896 204.8C235.896 206.511 236.752 207.367 238.463 207.367ZM284.301 184.631C281.245 188.054 278.312 190.743 275.5 192.698C272.689 194.654 270.244 195.632 268.166 195.632C264.866 195.632 263.216 193.921 263.216 190.498C263.216 188.542 263.705 186.648 264.682 184.814C265.66 182.859 267.372 180.475 269.816 177.663H276.6L267.983 187.198C266.516 188.665 265.783 190.315 265.783 192.148C265.783 193.86 266.638 194.715 268.349 194.715C270.061 194.715 272.139 193.86 274.583 192.148C277.15 190.437 279.778 188.054 282.468 184.998L284.118 183.164H285.585L284.301 184.631ZM285.662 183.164H284.195L285.845 181.331C291.224 175.463 296.296 170.818 301.064 167.396C305.831 163.851 309.62 162.078 312.432 162.078C313.532 162.078 314.448 162.445 315.182 163.179C315.915 163.912 316.282 164.89 316.282 166.112C316.282 168.801 315.182 171.796 312.982 175.097C310.781 178.397 306.992 182.797 301.614 188.298H303.447L299.78 193.249L287.496 207H275.394C279.795 203.822 284.317 200.155 288.962 195.999C293.607 191.843 297.886 187.687 301.797 183.531C305.709 179.375 308.826 175.708 311.148 172.53C313.593 169.229 314.815 166.846 314.815 165.379C314.815 163.79 313.96 162.995 312.248 162.995C310.781 162.995 308.642 163.851 305.831 165.562C303.019 167.151 299.964 169.351 296.663 172.163C293.485 174.852 290.368 177.908 287.312 181.331L285.662 183.164ZM339.568 208.283C338.223 208.283 337.001 207.672 335.901 206.45C334.923 205.228 334.434 203.822 334.434 202.233C334.434 199.666 335.412 196.977 337.368 194.165C339.323 191.354 341.707 188.604 344.518 185.914C347.452 183.103 350.325 180.475 353.136 178.03C356.07 175.463 358.514 173.141 360.47 171.063C362.426 168.985 363.404 167.212 363.404 165.746C363.404 164.279 362.548 163.545 360.837 163.545C359.126 163.545 356.803 164.462 353.869 166.296C350.936 168.007 347.696 170.329 344.152 173.263C340.607 176.197 337.001 179.436 333.334 182.981C329.789 186.403 326.489 189.826 323.433 193.249H321.966C325.144 189.704 328.567 186.159 332.234 182.614C335.901 179.069 339.568 175.769 343.235 172.713C346.902 169.657 350.263 167.212 353.319 165.379C356.497 163.545 359.064 162.629 361.02 162.629C362.365 162.629 363.587 163.117 364.687 164.095C365.91 164.951 366.521 166.357 366.521 168.312C366.521 170.879 365.482 173.507 363.404 176.197C361.448 178.886 359.003 181.575 356.07 184.264C353.136 186.953 350.202 189.52 347.269 191.965C344.335 194.41 341.829 196.732 339.751 198.932C337.795 201.133 336.818 203.088 336.818 204.8C336.818 206.511 337.795 207.367 339.751 207.367C341.585 207.367 344.213 206.328 347.635 204.25C351.058 202.172 354.786 199.421 358.82 195.999C362.854 192.576 366.643 188.909 370.188 184.998L371.838 183.164H373.305L372.021 184.631C368.232 189.031 364.198 193.004 359.92 196.549C355.764 200.094 351.852 202.966 348.185 205.166C344.641 207.244 341.768 208.283 339.568 208.283ZM299.78 193.249H298.313L309.498 181.331C314.754 175.585 319.582 171.063 323.983 167.762C328.383 164.462 331.989 162.812 334.801 162.812C335.901 162.812 336.818 163.179 337.551 163.912C338.284 164.645 338.651 165.623 338.651 166.846C338.651 169.413 337.673 172.285 335.717 175.463C333.762 178.641 330.278 182.92 325.266 188.298H327.1L323.433 193.249L311.148 207H300.33C304.486 203.822 308.703 200.216 312.982 196.182C317.382 192.026 321.355 187.931 324.9 183.898C328.567 179.864 331.5 176.258 333.701 173.08C336.023 169.902 337.184 167.579 337.184 166.112C337.184 164.523 336.329 163.729 334.617 163.729C333.15 163.729 331.134 164.523 328.567 166.112C326 167.701 323.188 169.84 320.132 172.53C317.077 175.097 314.021 178.03 310.965 181.331L299.78 193.249ZM368.453 207.917C365.397 207.917 363.869 205.533 363.869 200.766C363.869 197.588 364.847 194.226 366.803 190.682C368.636 187.137 371.142 183.714 374.32 180.414C377.499 176.991 381.043 173.935 384.955 171.246C388.866 168.435 392.9 166.234 397.056 164.645C401.334 163.056 405.368 162.262 409.158 162.262C412.336 162.262 413.925 163.484 413.925 165.929C413.925 168.251 412.458 171.185 409.524 174.73C406.591 178.152 402.924 182.186 398.523 186.831C395.1 190.376 391.433 193.799 387.522 197.099C383.733 200.277 380.127 202.905 376.704 204.983C373.404 206.939 370.653 207.917 368.453 207.917ZM368.636 207C370.47 207 372.915 206.144 375.971 204.433C379.026 202.6 382.449 200.094 386.238 196.916C390.028 193.737 393.878 190.132 397.79 186.098C402.19 181.453 405.735 177.48 408.424 174.18C411.236 170.879 412.641 168.19 412.641 166.112C412.641 164.523 411.602 163.729 409.524 163.729C407.691 163.729 405.307 164.462 402.373 165.929C399.562 167.396 396.506 169.413 393.206 171.98C389.905 174.424 386.666 177.175 383.488 180.23C380.31 183.286 377.376 186.342 374.687 189.398C372.12 192.454 370.042 195.327 368.453 198.016C366.864 200.705 366.07 202.966 366.07 204.8C366.07 206.267 366.925 207 368.636 207ZM426.026 183.164L424.743 184.631C420.831 189.031 416.858 193.065 412.825 196.732C408.913 200.277 405.246 203.088 401.823 205.166C398.523 207.244 395.895 208.283 393.939 208.283C392.839 208.283 391.861 207.856 391.006 207C390.272 206.267 389.905 205.289 389.905 204.066C389.905 200.888 391.617 196.61 395.039 191.232C398.584 185.853 403.474 179.986 409.708 173.63H410.441L418.875 164.279H429.693C428.104 165.257 426.393 166.479 424.559 167.946C422.726 169.29 421.014 170.757 419.425 172.346C412.458 179.314 406.957 184.875 402.924 189.031C398.89 193.187 396.017 196.427 394.306 198.749C392.717 201.072 391.922 203.027 391.922 204.616C391.922 206.45 392.656 207.367 394.123 207.367C395.834 207.367 398.156 206.45 401.09 204.616C404.146 202.661 407.568 199.971 411.358 196.549C415.147 193.126 418.997 189.276 422.909 184.998L424.559 183.164H426.026ZM426.042 183.164H424.575L426.225 181.331C431.603 175.463 436.676 170.818 441.443 167.396C446.211 163.851 450 162.078 452.811 162.078C453.911 162.078 454.828 162.445 455.562 163.179C456.295 163.912 456.662 164.89 456.662 166.112C456.662 168.801 455.562 171.796 453.361 175.097C451.161 178.397 447.372 182.797 441.993 188.298H443.827L440.16 193.249L427.875 207H415.774C420.174 203.822 424.697 200.155 429.342 195.999C433.987 191.843 438.265 187.687 442.177 183.531C446.088 179.375 449.205 175.708 451.528 172.53C453.973 169.229 455.195 166.846 455.195 165.379C455.195 163.79 454.339 162.995 452.628 162.995C451.161 162.995 449.022 163.851 446.211 165.562C443.399 167.151 440.343 169.351 437.043 172.163C433.865 174.852 430.748 177.908 427.692 181.331L426.042 183.164ZM456.295 208.283C454.95 208.283 453.728 207.672 452.628 206.45C451.65 205.228 451.161 203.822 451.161 202.233C451.161 199.666 452.139 196.977 454.095 194.165C456.051 191.354 458.434 188.604 461.246 185.914C464.179 183.103 467.052 180.475 469.863 178.03C472.797 175.463 475.242 173.141 477.197 171.063C479.153 168.985 480.131 167.212 480.131 165.746C480.131 164.279 479.275 163.545 477.564 163.545C475.853 163.545 473.53 164.462 470.597 166.296C467.663 168.007 464.424 170.329 460.879 173.263C457.334 176.197 453.728 179.436 450.061 182.981C446.516 186.403 443.216 189.826 440.16 193.249H438.693C441.871 189.704 445.294 186.159 448.961 182.614C452.628 179.069 456.295 175.769 459.962 172.713C463.629 169.657 466.991 167.212 470.046 165.379C473.225 163.545 475.792 162.629 477.747 162.629C479.092 162.629 480.314 163.117 481.414 164.095C482.637 164.951 483.248 166.357 483.248 168.312C483.248 170.879 482.209 173.507 480.131 176.197C478.175 178.886 475.73 181.575 472.797 184.264C469.863 186.953 466.929 189.52 463.996 191.965C461.062 194.41 458.556 196.732 456.478 198.932C454.523 201.133 453.545 203.088 453.545 204.8C453.545 205.533 453.789 206.144 454.278 206.633C454.889 207.122 455.623 207.367 456.478 207.367C458.312 207.367 460.94 206.328 464.363 204.25C467.785 202.172 471.513 199.421 475.547 195.999C479.581 192.576 483.37 188.909 486.915 184.998L488.565 183.164H490.032L488.749 184.631C484.837 189.031 480.742 193.004 476.464 196.549C472.308 200.094 468.457 202.966 464.913 205.166C461.368 207.244 458.495 208.283 456.295 208.283ZM495.832 151.627V150.344H568.44V151.627H495.832ZM496.565 180.964C491.065 187.076 487.214 191.904 485.014 195.449C482.692 198.871 481.53 201.805 481.53 204.25C481.53 206.328 482.386 207.367 484.097 207.367C485.931 207.367 487.948 206.694 490.148 205.35C492.471 203.883 495.282 201.561 498.582 198.382C502.005 195.082 506.222 190.62 511.234 184.998L512.884 183.164H514.351L513.067 184.631C505.489 193.187 499.438 199.299 494.915 202.966C490.515 206.511 486.787 208.283 483.731 208.283C480.43 208.283 478.78 206.45 478.78 202.783C478.78 197.038 482.019 190.498 488.498 183.164C490.331 180.842 492.104 178.702 493.815 176.747C495.526 174.791 497.421 172.652 499.499 170.329C501.699 167.885 504.388 164.951 507.567 161.528C510.867 157.984 514.962 153.644 519.851 148.51C524.741 143.376 530.73 137.02 537.82 129.442C539.409 129.442 541.242 129.319 543.32 129.075C545.521 128.708 547.599 128.28 549.554 127.791C546.499 129.992 542.22 133.72 536.72 138.976C531.219 144.232 524.985 150.527 518.018 157.861C511.05 165.073 503.9 172.774 496.565 180.964ZM505.332 208.283C504.232 208.283 503.315 207.856 502.582 207C501.726 206.267 501.298 205.289 501.298 204.066C501.298 200.522 503.56 195.632 508.082 189.398C512.483 183.042 519.695 174.669 529.718 164.279H540.719C539.497 164.89 538.03 165.868 536.319 167.212C534.607 168.557 532.652 170.268 530.451 172.346C523.728 178.825 518.35 184.203 514.316 188.481C510.405 192.637 507.593 195.999 505.882 198.566C504.171 201.01 503.315 203.027 503.315 204.616C503.315 206.45 504.048 207.367 505.515 207.367C507.227 207.367 509.671 206.389 512.849 204.433C515.905 202.355 519.328 199.605 523.117 196.182C527.029 192.76 530.757 189.031 534.302 184.998L535.952 183.164H537.419L536.135 184.631C532.102 189.154 528.068 193.249 524.034 196.916C520 200.46 516.333 203.272 513.033 205.35C509.855 207.306 507.288 208.283 505.332 208.283ZM566.939 126.325C568.039 126.325 568.589 126.752 568.589 127.608C568.589 128.83 567.733 130.358 566.022 132.192C564.433 134.025 562.538 135.676 560.338 137.142C558.138 138.487 556.243 139.159 554.654 139.159C553.676 139.159 553.187 138.732 553.187 137.876C553.187 136.654 553.982 135.126 555.571 133.292C557.282 131.459 559.238 129.869 561.438 128.525C563.638 127.058 565.472 126.325 566.939 126.325ZM537.598 208.283C535.275 208.283 533.381 207.367 531.914 205.533C530.447 203.577 529.714 201.133 529.714 198.199C529.714 195.143 530.63 192.026 532.464 188.848C534.175 185.548 536.498 182.37 539.431 179.314C542.365 176.136 545.665 173.324 549.332 170.879C552.999 168.312 556.789 166.296 560.7 164.829C564.612 163.362 568.34 162.629 571.885 162.629C576.53 162.629 578.852 164.034 578.852 166.846C578.852 168.435 577.997 170.39 576.285 172.713C574.696 175.035 572.802 176.991 570.601 178.58H564.184C566.018 177.725 567.912 176.502 569.868 174.913C571.824 173.324 573.474 171.735 574.818 170.146C576.163 168.435 576.835 167.09 576.835 166.112C576.835 164.523 575.552 163.729 572.985 163.729C570.54 163.729 567.607 164.707 564.184 166.662C560.761 168.618 557.217 171.185 553.55 174.363C550.005 177.419 546.643 180.781 543.465 184.448C540.409 187.992 537.903 191.476 535.948 194.899C533.992 198.199 533.014 201.072 533.014 203.516C533.014 206.083 534.664 207.367 537.965 207.367C541.387 207.367 545.299 206.389 549.699 204.433C554.222 202.477 558.745 199.788 563.267 196.366C567.79 192.943 571.946 189.154 575.735 184.998L577.385 183.164H578.852L577.569 184.631C573.535 189.276 569.135 193.371 564.367 196.916C559.6 200.46 554.894 203.272 550.249 205.35C545.726 207.306 541.509 208.283 537.598 208.283ZM574.009 207.917C570.953 207.917 569.425 205.533 569.425 200.766C569.425 197.588 570.403 194.226 572.359 190.682C574.193 187.137 576.698 183.714 579.876 180.414C583.055 176.991 586.599 173.935 590.511 171.246C594.422 168.435 598.456 166.234 602.612 164.645C606.89 163.056 610.924 162.262 614.714 162.262C617.892 162.262 619.481 163.484 619.481 165.929C619.481 168.251 618.014 171.185 615.08 174.73C612.147 178.152 608.48 182.186 604.079 186.831C600.656 190.376 596.989 193.799 593.078 197.099C589.289 200.277 585.683 202.905 582.26 204.983C578.96 206.939 576.209 207.917 574.009 207.917ZM574.193 207C576.026 207 578.471 206.144 581.527 204.433C584.583 202.6 588.005 200.094 591.794 196.916C595.584 193.737 599.434 190.132 603.346 186.098C607.746 181.453 611.291 177.48 613.98 174.18C616.792 170.879 618.197 168.19 618.197 166.112C618.197 164.523 617.158 163.729 615.08 163.729C613.247 163.729 610.863 164.462 607.929 165.929C605.118 167.396 602.062 169.413 598.762 171.98C595.461 174.424 592.222 177.175 589.044 180.23C585.866 183.286 582.932 186.342 580.243 189.398C577.676 192.454 575.598 195.327 574.009 198.016C572.42 200.705 571.626 202.966 571.626 204.8C571.626 206.267 572.481 207 574.193 207ZM631.582 183.164L630.299 184.631C626.387 189.031 622.414 193.065 618.381 196.732C614.469 200.277 610.802 203.088 607.379 205.166C604.079 207.244 601.451 208.283 599.495 208.283C598.395 208.283 597.417 207.856 596.562 207C595.828 206.267 595.461 205.289 595.461 204.066C595.461 200.888 597.173 196.61 600.595 191.232C604.14 185.853 609.03 179.986 615.264 173.63H615.997L624.431 164.279H635.249C633.66 165.257 631.949 166.479 630.115 167.946C628.282 169.29 626.57 170.757 624.981 172.346C618.014 179.314 612.513 184.875 608.48 189.031C604.446 193.187 601.573 196.427 599.862 198.749C598.273 201.072 597.478 203.027 597.478 204.616C597.478 206.45 598.212 207.367 599.679 207.367C601.39 207.367 603.712 206.45 606.646 204.616C609.702 202.661 613.124 199.971 616.914 196.549C620.703 193.126 624.554 189.276 628.465 184.998L630.115 183.164H631.582ZM631.598 183.164H630.131L631.781 181.331C640.46 171.796 647.427 163.973 652.683 157.861C658.062 151.75 661.607 147.471 663.318 145.027H669.369C665.579 147.838 660.873 152.055 655.25 157.678C649.75 163.301 642.477 171.124 633.431 181.147L631.598 183.164ZM666.435 184.631C661.301 190.498 655.923 194.96 650.3 198.016C644.799 201.072 639.36 202.6 633.981 202.6C629.948 202.6 626.586 202.966 623.897 203.7C621.086 204.433 619.68 205.35 619.68 206.45C619.68 207.061 620.23 207.367 621.33 207.367C625.119 207.367 628.786 206.328 632.331 204.25C635.998 202.172 639.299 199.421 642.232 195.999C645.166 192.576 647.488 188.726 649.2 184.448C650.911 180.047 651.767 175.585 651.767 171.063C651.767 168.374 651.95 165.99 652.317 163.912C652.806 161.834 653.722 159.695 655.067 157.495C656.412 155.172 658.551 152.483 661.484 149.427L669.185 145.027C665.885 147.594 663.257 149.733 661.301 151.444C659.467 153.033 658.184 154.5 657.451 155.844C656.717 157.067 656.35 158.411 656.35 159.878C656.35 161.467 656.595 163.668 657.084 166.479C657.695 169.168 658.001 171.918 658.001 174.73C658.001 178.886 656.962 182.981 654.884 187.015C652.806 190.926 649.994 194.532 646.449 197.832C642.905 201.01 638.993 203.577 634.715 205.533C630.437 207.367 626.097 208.283 621.697 208.283C619.741 208.283 618.763 207.672 618.763 206.45C618.763 205.105 620.23 204.005 623.164 203.15C626.097 202.172 629.642 201.683 633.798 201.683C644.188 201.683 654.456 196.121 664.601 184.998L666.252 183.164H667.718L666.435 184.631Z" fill="#A5B82E"/>
</svg>
